<svg width="149" height="52" viewBox="0 0 149 52" fill="none" xmlns="http://www.w3.org/2000/svg">
<path d="M50.4104 12.0432V9.76179H66.339V12.0432H59.6606V31H57.0888V12.0432H50.4104ZM72.0086 31.3318C70.4738 31.3318 69.1499 30.9931 68.0368 30.3156C66.9307 29.6311 66.0768 28.6771 65.4754 27.4534C64.8808 26.2228 64.5835 24.7917 64.5835 23.1601C64.5835 21.5285 64.8808 20.0905 65.4754 18.8461C66.0768 17.5948 66.9134 16.62 67.985 15.9217C69.0635 15.2165 70.3217 14.8639 71.7597 14.8639C72.5893 14.8639 73.4086 15.0022 74.2175 15.2787C75.0264 15.5553 75.7626 16.0047 76.4263 16.6269C77.09 17.2422 77.6189 18.058 78.013 19.0742C78.407 20.0905 78.6041 21.3419 78.6041 22.8283V23.8653H66.3257V21.7498H76.1152C76.1152 20.851 75.9355 20.049 75.576 19.3439C75.2234 18.6387 74.7187 18.0822 74.0619 17.6743C73.4121 17.2664 72.6447 17.0624 71.7597 17.0624C70.7849 17.0624 69.9415 17.3044 69.2294 17.7883C68.5242 18.2654 67.9815 18.8876 67.6013 19.655C67.221 20.4224 67.0309 21.2451 67.0309 22.1231V23.5334C67.0309 24.7364 67.2383 25.7561 67.6531 26.5927C68.0748 27.4223 68.659 28.0549 69.4057 28.4904C70.1523 28.919 71.02 29.1334 72.0086 29.1334C72.6516 29.1334 73.2323 29.0435 73.7508 28.8637C74.2762 28.6771 74.7291 28.4005 75.1093 28.0341C75.4896 27.6608 75.7834 27.1976 75.9908 26.6445L78.3552 27.3082C78.1063 28.1102 77.688 28.8153 77.1004 29.4237C76.5127 30.0252 75.7868 30.4953 74.9226 30.8341C74.0585 31.1659 73.0871 31.3318 72.0086 31.3318ZM91.2736 18.6387L89.0751 19.2609C88.9368 18.8945 88.7329 18.5385 88.4633 18.1928C88.2005 17.8402 87.841 17.5498 87.3848 17.3217C86.9285 17.0935 86.3443 16.9795 85.6322 16.9795C84.6574 16.9795 83.845 17.2041 83.1952 17.6535C82.5522 18.096 82.2308 18.6594 82.2308 19.3439C82.2308 19.9523 82.452 20.4327 82.8944 20.7853C83.3369 21.1379 84.0283 21.4317 84.9685 21.6668L87.3329 22.2475C88.7571 22.5932 89.8183 23.1221 90.5166 23.8342C91.2148 24.5394 91.5639 25.4485 91.5639 26.5615C91.5639 27.4741 91.3012 28.2899 90.7758 29.0089C90.2573 29.7279 89.5314 30.2948 88.5981 30.7096C87.6647 31.1244 86.5793 31.3318 85.3418 31.3318C83.7171 31.3318 82.3725 30.9793 81.3078 30.2741C80.2431 29.5689 79.5691 28.5388 79.2856 27.1838L81.6085 26.603C81.8298 27.4603 82.248 28.1033 82.8633 28.5319C83.4855 28.9605 84.2979 29.1748 85.3003 29.1748C86.4411 29.1748 87.3467 28.9329 88.0173 28.4489C88.6949 27.9581 89.0336 27.3704 89.0336 26.686C89.0336 26.1329 88.84 25.6697 88.4529 25.2964C88.0657 24.9161 87.4712 24.6327 86.6692 24.446L84.0144 23.8238C82.5557 23.4781 81.4841 22.9423 80.7997 22.2164C80.1221 21.4836 79.7834 20.5676 79.7834 19.4683C79.7834 18.5696 80.0357 17.7745 80.5404 17.0832C81.052 16.3918 81.7468 15.8491 82.6248 15.455C83.5097 15.061 84.5122 14.8639 85.6322 14.8639C87.2085 14.8639 88.446 15.2096 89.3447 15.901C90.2504 16.5923 90.8933 17.5049 91.2736 18.6387ZM104.195 18.6387L101.996 19.2609C101.858 18.8945 101.654 18.5385 101.384 18.1928C101.122 17.8402 100.762 17.5498 100.306 17.3217C99.8494 17.0935 99.2653 16.9795 98.5532 16.9795C97.5784 16.9795 96.766 17.2041 96.1162 17.6535C95.4732 18.096 95.1517 18.6594 95.1517 19.3439C95.1517 19.9523 95.373 20.4327 95.8154 20.7853C96.2579 21.1379 96.9492 21.4317 97.8895 21.6668L100.254 22.2475C101.678 22.5932 102.739 23.1221 103.438 23.8342C104.136 24.5394 104.485 25.4485 104.485 26.5615C104.485 27.4741 104.222 28.2899 103.697 29.0089C103.178 29.7279 102.452 30.2948 101.519 30.7096C100.586 31.1244 99.5003 31.3318 98.2628 31.3318C96.6381 31.3318 95.2935 30.9793 94.2288 30.2741C93.1641 29.5689 92.49 28.5388 92.2066 27.1838L94.5295 26.603C94.7508 27.4603 95.169 28.1033 95.7843 28.5319C96.4065 28.9605 97.2189 29.1748 98.2213 29.1748C99.362 29.1748 100.268 28.9329 100.938 28.4489C101.616 27.9581 101.955 27.3704 101.955 26.686C101.955 26.1329 101.761 25.6697 101.374 25.2964C100.987 24.9161 100.392 24.6327 99.5902 24.446L96.9354 23.8238C95.4767 23.4781 94.4051 22.9423 93.7206 22.2164C93.0431 21.4836 92.7044 20.5676 92.7044 19.4683C92.7044 18.5696 92.9567 17.7745 93.4614 17.0832C93.973 16.3918 94.6678 15.8491 95.5458 15.455C96.4307 15.061 97.4332 14.8639 98.5532 14.8639C100.129 14.8639 101.367 15.2096 102.266 15.901C103.171 16.5923 103.814 17.5049 104.195 18.6387ZM112.511 31.3318C110.976 31.3318 109.652 30.9931 108.539 30.3156C107.433 29.6311 106.579 28.6771 105.978 27.4534C105.383 26.2228 105.086 24.7917 105.086 23.1601C105.086 21.5285 105.383 20.0905 105.978 18.8461C106.579 17.5948 107.416 16.62 108.488 15.9217C109.566 15.2165 110.824 14.8639 112.262 14.8639C113.092 14.8639 113.911 15.0022 114.72 15.2787C115.529 15.5553 116.265 16.0047 116.929 16.6269C117.593 17.2422 118.121 18.058 118.516 19.0742C118.91 20.0905 119.107 21.3419 119.107 22.8283V23.8653H106.828V21.7498H116.618C116.618 20.851 116.438 20.049 116.079 19.3439C115.726 18.6387 115.221 18.0822 114.564 17.6743C113.915 17.2664 113.147 17.0624 112.262 17.0624C111.287 17.0624 110.444 17.3044 109.732 17.7883C109.027 18.2654 108.484 18.8876 108.104 19.655C107.724 20.4224 107.533 21.2451 107.533 22.1231V23.5334C107.533 24.7364 107.741 25.7561 108.156 26.5927C108.577 27.4223 109.162 28.0549 109.908 28.4904C110.655 28.919 111.523 29.1334 112.511 29.1334C113.154 29.1334 113.735 29.0435 114.253 28.8637C114.779 28.6771 115.232 28.4005 115.612 28.0341C115.992 27.6608 116.286 27.1976 116.493 26.6445L118.858 27.3082C118.609 28.1102 118.191 28.8153 117.603 29.4237C117.015 30.0252 116.289 30.4953 115.425 30.8341C114.561 31.1659 113.59 31.3318 112.511 31.3318ZM120.493 31V15.0713H122.858V17.4772H123.024C123.314 16.6891 123.839 16.0496 124.6 15.5587C125.36 15.0679 126.218 14.8225 127.172 14.8225C127.352 14.8225 127.576 14.8259 127.846 14.8328C128.115 14.8397 128.319 14.8501 128.458 14.8639V17.3528C128.375 17.332 128.185 17.3009 127.887 17.2595C127.597 17.2111 127.289 17.1869 126.964 17.1869C126.19 17.1869 125.499 17.3493 124.89 17.6743C124.289 17.9923 123.812 18.4347 123.459 19.0017C123.114 19.5616 122.941 20.2011 122.941 20.9201V31H120.493ZM133.71 31.3733C132.701 31.3733 131.784 31.1832 130.962 30.803C130.139 30.4158 129.486 29.8593 129.002 29.1334C128.518 28.4005 128.276 27.5156 128.276 26.4786C128.276 25.566 128.456 24.8263 128.815 24.2594C129.175 23.6855 129.655 23.2362 130.257 22.9112C130.858 22.5863 131.522 22.3443 132.248 22.1853C132.981 22.0194 133.717 21.888 134.457 21.7912C135.424 21.6668 136.209 21.5735 136.811 21.5112C137.419 21.4421 137.861 21.328 138.138 21.169C138.421 21.01 138.563 20.7335 138.563 20.3394V20.2565C138.563 19.2333 138.283 18.4382 137.723 17.8713C137.17 17.3044 136.33 17.0209 135.203 17.0209C134.035 17.0209 133.119 17.2767 132.455 17.7883C131.791 18.2999 131.325 18.8461 131.055 19.4268L128.732 18.5972C129.147 17.6293 129.7 16.8758 130.391 16.3365C131.09 15.7903 131.85 15.4101 132.673 15.1958C133.502 14.9746 134.318 14.8639 135.12 14.8639C135.632 14.8639 136.219 14.9262 136.883 15.0506C137.554 15.1681 138.2 15.4136 138.822 15.7869C139.452 16.1602 139.973 16.7237 140.388 17.4772C140.803 18.2308 141.011 19.2402 141.011 20.5053V31H138.563V28.843H138.439C138.273 29.1887 137.996 29.5585 137.609 29.9526C137.222 30.3467 136.707 30.682 136.064 30.9585C135.421 31.2351 134.636 31.3733 133.71 31.3733ZM134.083 29.1748C135.051 29.1748 135.867 28.9847 136.531 28.6045C137.201 28.2242 137.706 27.7334 138.045 27.1319C138.39 26.5304 138.563 25.8979 138.563 25.2342V22.9942C138.459 23.1186 138.231 23.2327 137.879 23.3364C137.533 23.4332 137.132 23.5196 136.676 23.5957C136.226 23.6648 135.787 23.727 135.359 23.7823C134.937 23.8307 134.595 23.8722 134.332 23.9068C133.696 23.9897 133.101 24.1245 132.548 24.3112C132.002 24.491 131.56 24.764 131.221 25.1305C130.889 25.49 130.723 25.9808 130.723 26.603C130.723 27.4534 131.038 28.0963 131.667 28.5319C132.303 28.9605 133.108 29.1748 134.083 29.1748Z" fill="#22AEA4"/>
<path d="M56.4769 40.4307V34.8621H59.8377V35.4603H57.1512V37.3419H59.6637V37.9401H57.1512V39.8325H59.8812V40.4307H56.4769ZM62.6798 37.9183V40.4307H62.0381V36.2542H62.658V36.9068H62.7124C62.8103 36.6947 62.9589 36.5243 63.1583 36.3956C63.3577 36.2651 63.6151 36.1998 63.9305 36.1998C64.2133 36.1998 64.4608 36.2579 64.6729 36.3739C64.8849 36.4881 65.0499 36.6621 65.1677 36.8959C65.2856 37.128 65.3445 37.4216 65.3445 37.7769V40.4307H64.7028V37.8204C64.7028 37.4923 64.6176 37.2367 64.4472 37.0536C64.2768 36.8687 64.0429 36.7763 63.7456 36.7763C63.5408 36.7763 63.3577 36.8207 63.1964 36.9095C63.0369 36.9983 62.9109 37.128 62.8184 37.2984C62.726 37.4687 62.6798 37.6754 62.6798 37.9183ZM69.4054 36.2542V36.798H67.241V36.2542H69.4054ZM67.8718 35.2536H68.5135V39.2343C68.5135 39.4156 68.5398 39.5516 68.5924 39.6422C68.6468 39.731 68.7157 39.7908 68.799 39.8217C68.8842 39.8507 68.974 39.8652 69.0682 39.8652C69.1389 39.8652 69.1969 39.8615 69.2423 39.8543C69.2876 39.8452 69.3238 39.838 69.351 39.8325L69.4815 40.409C69.438 40.4253 69.3773 40.4416 69.2994 40.4579C69.2214 40.4761 69.1226 40.4851 69.003 40.4851C68.8217 40.4851 68.6441 40.4461 68.47 40.3682C68.2978 40.2903 68.1546 40.1715 68.0404 40.012C67.928 39.8525 67.8718 39.6513 67.8718 39.4084V35.2536ZM73.1489 40.5177C72.7464 40.5177 72.3993 40.4289 72.1075 40.2513C71.8174 40.0718 71.5936 39.8217 71.4358 39.5008C71.28 39.1781 71.202 38.8029 71.202 38.3751C71.202 37.9473 71.28 37.5703 71.4358 37.244C71.5936 36.9159 71.8129 36.6603 72.0939 36.4772C72.3766 36.2923 72.7066 36.1998 73.0836 36.1998C73.3011 36.1998 73.5159 36.2361 73.728 36.3086C73.9401 36.3811 74.1332 36.4989 74.3072 36.6621C74.4812 36.8234 74.6199 37.0373 74.7232 37.3038C74.8265 37.5703 74.8782 37.8984 74.8782 38.2881V38.56H71.6588V38.0053H74.2256C74.2256 37.7697 74.1785 37.5594 74.0842 37.3745C73.9918 37.1896 73.8595 37.0437 73.6872 36.9367C73.5169 36.8298 73.3156 36.7763 73.0836 36.7763C72.828 36.7763 72.6069 36.8397 72.4202 36.9666C72.2353 37.0917 72.093 37.2548 71.9933 37.4561C71.8936 37.6573 71.8437 37.873 71.8437 38.1032V38.473C71.8437 38.7884 71.8981 39.0558 72.0069 39.2751C72.1174 39.4927 72.2706 39.6585 72.4664 39.7727C72.6622 39.8851 72.8896 39.9413 73.1489 39.9413C73.3175 39.9413 73.4697 39.9177 73.6057 39.8706C73.7434 39.8217 73.8622 39.7492 73.9619 39.6531C74.0616 39.5552 74.1386 39.4337 74.193 39.2887L74.8129 39.4627C74.7477 39.673 74.638 39.8579 74.4839 40.0174C74.3299 40.1751 74.1395 40.2984 73.9129 40.3872C73.6863 40.4742 73.4317 40.5177 73.1489 40.5177ZM76.9263 40.4307V36.2542H77.5463V36.8851H77.5898C77.6659 36.6784 77.8037 36.5107 78.0031 36.382C78.2025 36.2533 78.4273 36.189 78.6774 36.189C78.7245 36.189 78.7835 36.1899 78.8542 36.1917C78.9249 36.1935 78.9783 36.1962 79.0146 36.1998V36.8524C78.9928 36.847 78.943 36.8388 78.865 36.828C78.7889 36.8153 78.7082 36.8089 78.623 36.8089C78.42 36.8089 78.2387 36.8515 78.0792 36.9367C77.9215 37.0201 77.7964 37.1361 77.704 37.2848C77.6133 37.4316 77.568 37.5993 77.568 37.7878V40.4307H76.9263ZM80.8472 41.9969V36.2542H81.4672V36.9177H81.5433C81.5904 36.8452 81.6557 36.7527 81.7391 36.6403C81.8243 36.5261 81.9457 36.4246 82.1034 36.3358C82.263 36.2452 82.4787 36.1998 82.7506 36.1998C83.1022 36.1998 83.4122 36.2878 83.6805 36.4636C83.9488 36.6394 84.1582 36.8887 84.3086 37.2113C84.4591 37.534 84.5343 37.9147 84.5343 38.3534C84.5343 38.7957 84.4591 39.1791 84.3086 39.5035C84.1582 39.8262 83.9497 40.0764 83.6832 40.254C83.4168 40.4298 83.1095 40.5177 82.7615 40.5177C82.4932 40.5177 82.2784 40.4733 82.117 40.3845C81.9557 40.2939 81.8315 40.1915 81.7445 40.0773C81.6575 39.9612 81.5904 39.8652 81.5433 39.789H81.4889V41.9969H80.8472ZM81.478 38.3425C81.478 38.6579 81.5243 38.9361 81.6167 39.1772C81.7092 39.4165 81.8442 39.6041 82.0219 39.7401C82.1995 39.8742 82.417 39.9413 82.6744 39.9413C82.9427 39.9413 83.1666 39.8706 83.3461 39.7292C83.5273 39.586 83.6633 39.3939 83.7539 39.1528C83.8464 38.9099 83.8926 38.6398 83.8926 38.3425C83.8926 38.0488 83.8473 37.7842 83.7566 37.5485C83.6678 37.311 83.5328 37.1234 83.3515 36.9857C83.172 36.8461 82.9464 36.7763 82.6744 36.7763C82.4134 36.7763 82.1941 36.8425 82.0164 36.9748C81.8388 37.1053 81.7046 37.2884 81.614 37.524C81.5234 37.7579 81.478 38.0307 81.478 38.3425ZM86.5851 40.4307V36.2542H87.2051V36.8851H87.2486C87.3247 36.6784 87.4625 36.5107 87.6619 36.382C87.8613 36.2533 88.0861 36.189 88.3362 36.189C88.3834 36.189 88.4423 36.1899 88.513 36.1917C88.5837 36.1935 88.6371 36.1962 88.6734 36.1998V36.8524C88.6516 36.847 88.6018 36.8388 88.5238 36.828C88.4477 36.8153 88.367 36.8089 88.2818 36.8089C88.0788 36.8089 87.8976 36.8515 87.738 36.9367C87.5803 37.0201 87.4552 37.1361 87.3628 37.2848C87.2722 37.4316 87.2268 37.5993 87.2268 37.7878V40.4307H86.5851ZM90.506 40.4307V36.2542H91.1477V40.4307H90.506ZM90.8323 35.5581C90.7072 35.5581 90.5994 35.5155 90.5088 35.4303C90.4199 35.3451 90.3755 35.2427 90.3755 35.1231C90.3755 35.0034 90.4199 34.901 90.5088 34.8158C90.5994 34.7306 90.7072 34.688 90.8323 34.688C90.9574 34.688 91.0643 34.7306 91.1532 34.8158C91.2438 34.901 91.2891 35.0034 91.2891 35.1231C91.2891 35.2427 91.2438 35.3451 91.1532 35.4303C91.0643 35.5155 90.9574 35.5581 90.8323 35.5581ZM96.3534 37.1896L95.7769 37.3527C95.7407 37.2567 95.6872 37.1633 95.6165 37.0727C95.5476 36.9802 95.4534 36.9041 95.3337 36.8443C95.2141 36.7844 95.0609 36.7545 94.8742 36.7545C94.6186 36.7545 94.4056 36.8135 94.2352 36.9313C94.0666 37.0473 93.9824 37.195 93.9824 37.3745C93.9824 37.534 94.0404 37.66 94.1564 37.7524C94.2724 37.8449 94.4537 37.9219 94.7002 37.9836L95.3201 38.1358C95.6936 38.2265 95.9718 38.3651 96.1549 38.5519C96.338 38.7367 96.4295 38.9751 96.4295 39.267C96.4295 39.5062 96.3606 39.7202 96.2229 39.9087C96.0869 40.0972 95.8966 40.2458 95.6519 40.3546C95.4072 40.4634 95.1226 40.5177 94.7981 40.5177C94.3721 40.5177 94.0195 40.4253 93.7404 40.2404C93.4612 40.0555 93.2845 39.7854 93.2101 39.4301L93.8192 39.2778C93.8772 39.5026 93.9869 39.6712 94.1482 39.7836C94.3114 39.896 94.5244 39.9522 94.7872 39.9522C95.0863 39.9522 95.3238 39.8887 95.4996 39.7618C95.6772 39.6331 95.7661 39.4791 95.7661 39.2996C95.7661 39.1546 95.7153 39.0331 95.6138 38.9352C95.5123 38.8355 95.3564 38.7612 95.1461 38.7123L94.45 38.5491C94.0676 38.4585 93.7866 38.318 93.6071 38.1277C93.4295 37.9355 93.3406 37.6953 93.3406 37.4071C93.3406 37.1715 93.4068 36.963 93.5391 36.7817C93.6733 36.6005 93.8555 36.4582 94.0857 36.3548C94.3177 36.2515 94.5806 36.1998 94.8742 36.1998C95.2875 36.1998 95.612 36.2905 95.8476 36.4718C96.0851 36.653 96.2537 36.8923 96.3534 37.1896ZM100.219 40.5177C99.8161 40.5177 99.469 40.4289 99.1771 40.2513C98.8871 40.0718 98.6632 39.8217 98.5055 39.5008C98.3496 39.1781 98.2717 38.8029 98.2717 38.3751C98.2717 37.9473 98.3496 37.5703 98.5055 37.244C98.6632 36.9159 98.8826 36.6603 99.1635 36.4772C99.4463 36.2923 99.7762 36.1998 100.153 36.1998C100.371 36.1998 100.586 36.2361 100.798 36.3086C101.01 36.3811 101.203 36.4989 101.377 36.6621C101.551 36.8234 101.69 37.0373 101.793 37.3038C101.896 37.5703 101.948 37.8984 101.948 38.2881V38.56H98.7285V38.0053H101.295C101.295 37.7697 101.248 37.5594 101.154 37.3745C101.061 37.1896 100.929 37.0437 100.757 36.9367C100.587 36.8298 100.385 36.7763 100.153 36.7763C99.8977 36.7763 99.6765 36.8397 99.4898 36.9666C99.3049 37.0917 99.1626 37.2548 99.0629 37.4561C98.9632 37.6573 98.9134 37.873 98.9134 38.1032V38.473C98.9134 38.7884 98.9678 39.0558 99.0765 39.2751C99.1871 39.4927 99.3403 39.6585 99.5361 39.7727C99.7318 39.8851 99.9593 39.9413 100.219 39.9413C100.387 39.9413 100.539 39.9177 100.675 39.8706C100.813 39.8217 100.932 39.7492 101.032 39.6531C101.131 39.5552 101.208 39.4337 101.263 39.2887L101.883 39.4627C101.817 39.673 101.708 39.8579 101.554 40.0174C101.4 40.1751 101.209 40.2984 100.983 40.3872C100.756 40.4742 100.501 40.5177 100.219 40.5177ZM107.537 40.4307H106.83L108.875 34.8621H109.571L111.616 40.4307H110.909L109.244 35.743H109.201L107.537 40.4307ZM107.798 38.2555H110.648V38.8537H107.798V38.2555ZM115.154 42.0839C114.844 42.0839 114.577 42.0441 114.354 41.9643C114.131 41.8864 113.946 41.783 113.797 41.6543C113.65 41.5274 113.533 41.3915 113.446 41.2465L113.957 40.8875C114.015 40.9637 114.089 41.0507 114.178 41.1486C114.266 41.2483 114.388 41.3344 114.542 41.4069C114.698 41.4812 114.902 41.5184 115.154 41.5184C115.491 41.5184 115.769 41.4368 115.988 41.2737C116.208 41.1105 116.317 40.8549 116.317 40.5069V39.6585H116.263C116.216 39.7347 116.149 39.8289 116.062 39.9413C115.977 40.0519 115.853 40.1507 115.692 40.2377C115.533 40.3229 115.317 40.3655 115.045 40.3655C114.708 40.3655 114.405 40.2857 114.137 40.1262C113.87 39.9667 113.659 39.7347 113.503 39.4301C113.349 39.1256 113.272 38.7558 113.272 38.3207C113.272 37.8929 113.347 37.5204 113.498 37.2032C113.648 36.8841 113.858 36.6376 114.126 36.4636C114.394 36.2878 114.704 36.1998 115.056 36.1998C115.328 36.1998 115.543 36.2452 115.703 36.3358C115.864 36.4246 115.988 36.5261 116.073 36.6403C116.16 36.7527 116.227 36.8452 116.274 36.9177H116.339V36.2542H116.959V40.5504C116.959 40.9093 116.878 41.2011 116.714 41.4259C116.553 41.6525 116.336 41.8184 116.062 41.9235C115.79 42.0305 115.487 42.0839 115.154 42.0839ZM115.132 39.789C115.389 39.789 115.607 39.7301 115.785 39.6123C115.962 39.4945 116.097 39.325 116.19 39.1038C116.282 38.8827 116.328 38.618 116.328 38.3099C116.328 38.0089 116.283 37.7434 116.192 37.5132C116.102 37.2829 115.968 37.1026 115.79 36.9721C115.612 36.8415 115.393 36.7763 115.132 36.7763C114.86 36.7763 114.633 36.8452 114.452 36.9829C114.273 37.1207 114.138 37.3056 114.047 37.5376C113.958 37.7697 113.914 38.0271 113.914 38.3099C113.914 38.5999 113.959 38.8564 114.05 39.0794C114.142 39.3005 114.278 39.4745 114.458 39.6014C114.639 39.7265 114.864 39.789 115.132 39.789ZM120.957 40.5177C120.554 40.5177 120.207 40.4289 119.915 40.2513C119.625 40.0718 119.402 39.8217 119.244 39.5008C119.088 39.1781 119.01 38.8029 119.01 38.3751C119.01 37.9473 119.088 37.5703 119.244 37.244C119.402 36.9159 119.621 36.6603 119.902 36.4772C120.185 36.2923 120.515 36.1998 120.892 36.1998C121.109 36.1998 121.324 36.2361 121.536 36.3086C121.748 36.3811 121.941 36.4989 122.115 36.6621C122.289 36.8234 122.428 37.0373 122.531 37.3038C122.635 37.5703 122.686 37.8984 122.686 38.2881V38.56H119.467V38.0053H122.034C122.034 37.7697 121.987 37.5594 121.892 37.3745C121.8 37.1896 121.667 37.0437 121.495 36.9367C121.325 36.8298 121.124 36.7763 120.892 36.7763C120.636 36.7763 120.415 36.8397 120.228 36.9666C120.043 37.0917 119.901 37.2548 119.801 37.4561C119.702 37.6573 119.652 37.873 119.652 38.1032V38.473C119.652 38.7884 119.706 39.0558 119.815 39.2751C119.925 39.4927 120.079 39.6585 120.274 39.7727C120.47 39.8851 120.698 39.9413 120.957 39.9413C121.125 39.9413 121.278 39.9177 121.414 39.8706C121.551 39.8217 121.67 39.7492 121.77 39.6531C121.87 39.5552 121.947 39.4337 122.001 39.2887L122.621 39.4627C122.556 39.673 122.446 39.8579 122.292 40.0174C122.138 40.1751 121.948 40.2984 121.721 40.3872C121.494 40.4742 121.24 40.5177 120.957 40.5177ZM125.376 37.9183V40.4307H124.734V36.2542H125.354V36.9068H125.409C125.507 36.6947 125.655 36.5243 125.855 36.3956C126.054 36.2651 126.311 36.1998 126.627 36.1998C126.91 36.1998 127.157 36.2579 127.369 36.3739C127.581 36.4881 127.746 36.6621 127.864 36.8959C127.982 37.128 128.041 37.4216 128.041 37.7769V40.4307H127.399V37.8204C127.399 37.4923 127.314 37.2367 127.143 37.0536C126.973 36.8687 126.739 36.7763 126.442 36.7763C126.237 36.7763 126.054 36.8207 125.893 36.9095C125.733 36.9983 125.607 37.128 125.515 37.2984C125.422 37.4687 125.376 37.6754 125.376 37.9183ZM132.102 36.2542V36.798H129.937V36.2542H132.102ZM130.568 35.2536H131.21V39.2343C131.21 39.4156 131.236 39.5516 131.289 39.6422C131.343 39.731 131.412 39.7908 131.495 39.8217C131.581 39.8507 131.67 39.8652 131.765 39.8652C131.835 39.8652 131.893 39.8615 131.939 39.8543C131.984 39.8452 132.02 39.838 132.047 39.8325L132.178 40.409C132.134 40.4253 132.074 40.4416 131.996 40.4579C131.918 40.4761 131.819 40.4851 131.699 40.4851C131.518 40.4851 131.34 40.4461 131.166 40.3682C130.994 40.2903 130.851 40.1715 130.737 40.012C130.624 39.8525 130.568 39.6513 130.568 39.4084V35.2536ZM138.925 37.6464C138.925 38.2337 138.818 38.7413 138.606 39.1691C138.394 39.5969 138.103 39.9268 137.734 40.1588C137.364 40.3909 136.941 40.5069 136.466 40.5069C135.992 40.5069 135.569 40.3909 135.199 40.1588C134.83 39.9268 134.539 39.5969 134.327 39.1691C134.114 38.7413 134.008 38.2337 134.008 37.6464C134.008 37.0591 134.114 36.5515 134.327 36.1237C134.539 35.6959 134.83 35.366 135.199 35.134C135.569 34.9019 135.992 34.7859 136.466 34.7859C136.941 34.7859 137.364 34.9019 137.734 35.134C138.103 35.366 138.394 35.6959 138.606 36.1237C138.818 36.5515 138.925 37.0591 138.925 37.6464ZM138.272 37.6464C138.272 37.1642 138.191 36.7573 138.03 36.4255C137.87 36.0938 137.654 35.8427 137.38 35.6723C137.108 35.5019 136.804 35.4167 136.466 35.4167C136.129 35.4167 135.824 35.5019 135.55 35.6723C135.278 35.8427 135.062 36.0938 134.9 36.4255C134.741 36.7573 134.661 37.1642 134.661 37.6464C134.661 38.1286 134.741 38.5355 134.9 38.8673C135.062 39.199 135.278 39.4501 135.55 39.6205C135.824 39.7908 136.129 39.876 136.466 39.876C136.804 39.876 137.108 39.7908 137.38 39.6205C137.654 39.4501 137.87 39.199 138.03 38.8673C138.191 38.5355 138.272 38.1286 138.272 37.6464ZM144.176 36.2542C144.143 35.9787 144.011 35.7648 143.779 35.6125C143.547 35.4603 143.262 35.3841 142.925 35.3841C142.678 35.3841 142.463 35.424 142.278 35.5038C142.095 35.5835 141.952 35.6932 141.848 35.8328C141.747 35.9723 141.696 36.131 141.696 36.3086C141.696 36.4572 141.731 36.585 141.802 36.692C141.874 36.7971 141.967 36.8851 142.079 36.9557C142.192 37.0246 142.31 37.0817 142.433 37.1271C142.556 37.1706 142.669 37.2059 142.773 37.2331L143.338 37.3854C143.483 37.4234 143.645 37.476 143.822 37.5431C144.002 37.6101 144.173 37.7017 144.336 37.8177C144.501 37.9319 144.637 38.0787 144.744 38.2582C144.851 38.4376 144.904 38.6579 144.904 38.9189C144.904 39.2198 144.826 39.4917 144.668 39.7347C144.512 39.9776 144.284 40.1706 143.983 40.3138C143.684 40.457 143.32 40.5286 142.892 40.5286C142.494 40.5286 142.148 40.4643 141.856 40.3356C141.566 40.2069 141.338 40.0274 141.171 39.7972C141.006 39.567 140.913 39.2996 140.891 38.9951H141.587C141.605 39.2053 141.676 39.3794 141.799 39.5171C141.924 39.6531 142.082 39.7546 142.272 39.8217C142.465 39.8869 142.671 39.9196 142.892 39.9196C143.15 39.9196 143.381 39.8779 143.586 39.7945C143.791 39.7093 143.953 39.5914 144.072 39.441C144.192 39.2887 144.252 39.1111 144.252 38.9081C144.252 38.7232 144.2 38.5727 144.097 38.4567C143.994 38.3407 143.858 38.2464 143.689 38.1739C143.52 38.1014 143.338 38.0379 143.142 37.9836L142.457 37.7878C142.022 37.6627 141.678 37.4842 141.424 37.2521C141.17 37.0201 141.043 36.7165 141.043 36.3412C141.043 36.0294 141.128 35.7575 141.296 35.5255C141.467 35.2917 141.695 35.1104 141.981 34.9817C142.27 34.8512 142.591 34.7859 142.947 34.7859C143.306 34.7859 143.625 34.8503 143.904 34.979C144.183 35.1059 144.404 35.2799 144.567 35.501C144.732 35.7222 144.819 35.9733 144.828 36.2542H144.176Z" fill="#22AEA4"/>
<path d="M11.2593 28.6643L7.64471 25.0497V28.6643H11.2593Z" fill="#22AEA4"/>
<path d="M22.8942 20.7573L19.5055 17.3686H26.2829L22.8942 20.7573Z" fill="#22AEA4"/>
<path d="M11.1464 45.6079V32.7308L13.5749 30.3022L19.3922 36.1195H23.5716V45.6079H11.1464Z" fill="#22AEA4"/>
<path d="M25.153 45.495V36.3454L29.05 32.4484L36.2228 39.6212V43.0099L33.7377 45.495H25.153Z" fill="#22AEA4"/>
<path d="M27.6381 12.5114L35.4321 4.71732H17.9237V16.126H27.6381V12.5114Z" fill="#22AEA4"/>
<path d="M30.2365 31.1494L38.2565 23.1294L38.3694 23.0165L46.9542 31.6013L38.8213 39.7342L30.2365 31.1494Z" fill="#22AEA4"/>
<path d="M5.04697 20.9832L13.0669 12.9632L13.1799 12.8503L21.7646 21.435L13.6317 29.568L5.04697 20.9832Z" fill="#22AEA4"/>
<path d="M29.2196 13.528L36.4489 6.29876L36.5618 6.1858L45.5984 15.2224L38.2562 22.5646L29.2196 13.528Z" fill="#22AEA4"/>
</svg>
